# Blender v2.78 (sub 0) OBJ File: 'Arrow.blend'
# www.blender.org
o Player_Arrow_Model_Plane.001
v 0.000000 0.050000 -0.050000
v -1.000000 0.050000 0.050000
v 0.000000 0.050000 0.050000
v 1.000000 0.050000 0.050000
v 1.000000 -0.000000 0.050000
v 1.500000 -0.000000 0.010000
v 1.000000 0.050000 -0.050000
v 0.000000 -0.000000 0.050000
v 1.000000 0.000000 -0.050000
v 0.000000 0.000000 -0.050000
v -1.050000 -0.000000 0.050000
v -1.000000 -0.000000 0.050000
v -1.000000 0.050000 -0.050000
v -1.300000 0.250000 0.015000
v 1.000000 0.300000 0.050000
v -1.250000 0.050000 0.050000
v -1.400000 -0.000000 0.050000
v -1.200000 -0.000000 0.050000
v 1.500000 0.000000 -0.010000
v 1.000000 0.300000 -0.050000
v -1.300000 0.250000 -0.015000
v -1.050000 0.000000 -0.050000
v -1.250000 0.050000 -0.050000
v -1.400000 0.000000 -0.050000
v -1.500000 0.250000 0.015000
v -1.500000 0.250000 -0.015000
v -1.000000 -0.050000 0.050000
v 0.000000 -0.050000 -0.050000
v 0.000000 -0.050000 0.050000
v 1.000000 -0.050000 0.050000
v 1.000000 -0.050000 -0.050000
v -1.000000 -0.050000 -0.050000
v -1.300000 -0.250000 0.015000
v 1.000000 -0.300000 0.050000
v -1.250000 -0.050000 0.050000
v 1.000000 -0.300000 -0.050000
v -1.300000 -0.250000 -0.015000
v -1.000000 0.000000 -0.050000
v -1.250000 -0.050000 -0.050000
v -1.500000 -0.250000 0.015000
v -1.500000 -0.250000 -0.015000
v -1.200000 0.000000 -0.050000
vt 0.8125 0.3281
vt 0.7500 0.6561
vt 0.7500 0.3281
vt 0.5937 0.1668
vt 0.5625 0.1668
vt 0.5625 0.0000
vt 0.8125 0.0000
vt 0.5625 0.5001
vt 0.5937 0.5001
vt 0.1563 0.5001
vt 0.1875 0.1668
vt 0.1875 0.5001
vt 0.5937 0.8334
vt 0.5625 0.8501
vt 0.5625 0.8334
vt 0.1563 0.8334
vt 0.8125 0.6561
vt 0.7719 0.7664
vt 0.7500 0.1668
vt 0.5937 0.9168
vt 0.5625 0.9668
vt 0.5625 0.9001
vt 0.9125 0.1818
vt 0.8750 0.3635
vt 0.9000 0.1818
vt 0.9375 0.1772
vt 1.0000 0.0938
vt 1.0000 0.1772
vt 0.9775 0.4573
vt 0.9369 0.5240
vt 0.9588 0.4573
vt 0.1875 0.8501
vt 0.0313 0.9333
vt 0.1563 0.9168
vt 0.9369 0.4444
vt 0.8750 0.3649
vt 0.8936 0.3635
vt 0.9994 0.4573
vt 0.9588 0.3635
vt 0.9775 0.3635
vt 0.1875 0.9668
vt 0.0313 1.0000
vt 0.1562 0.1668
vt 0.1875 0.0000
vt 0.0000 0.1668
vt 0.8125 0.1102
vt 0.8750 0.4383
vt 0.8125 0.4383
vt 0.5312 0.1668
vt 0.8750 0.7664
vt 0.5312 0.5001
vt 0.2188 0.5001
vt 0.5312 0.8334
vt 0.2188 0.8334
vt 0.8344 0.0000
vt 0.8750 0.1102
vt 0.3750 0.1668
vt 0.5312 0.9168
vt 0.9375 0.1818
vt 0.9000 0.0000
vt 0.9125 0.0000
vt 1.0000 0.2651
vt 0.9375 0.1818
vt 1.0000 0.1818
vt 0.9375 0.2651
vt 0.9781 0.3318
vt 0.9594 0.3318
vt 0.1875 0.8334
vt 0.2188 0.9168
vt 0.3438 0.9333
vt 0.4062 0.9333
vt 0.9183 0.5300
vt 0.9369 0.5286
vt 0.9375 0.0938
vt 0.9781 0.0000
vt 1.0000 0.0938
vt 0.1875 0.9001
vt 0.2187 0.1668
vt 0.3750 0.1668
vt 0.7500 0.0000
vt 0.7187 0.9333
vt 0.7906 0.7664
vt 0.7187 1.0000
vt 0.9375 0.3635
vt 0.9375 0.0938
vt 0.9994 0.5240
vt 0.8750 0.4490
vt 0.9369 0.4573
vt 0.8125 0.7664
vt 0.8531 0.0000
vt 0.4062 1.0000
vt 0.8750 0.1818
vt 0.9375 0.2651
vt 1.0000 0.2651
vt 0.9594 0.0000
vt 0.3438 1.0000
vn 0.0000 1.0000 0.0000
vn 0.0797 -0.0000 0.9968
vn 0.0000 -0.0000 1.0000
vn 0.0000 0.0000 -1.0000
vn 0.5547 0.8321 0.0000
vn 0.5145 0.8575 0.0000
vn -1.0000 0.0000 0.0000
vn -0.9701 -0.2425 -0.0000
vn -0.0697 0.0697 -0.9951
vn 0.0458 0.1833 -0.9820
vn -0.9285 -0.3714 -0.0000
vn 0.6247 0.7809 0.0000
vn -0.0408 0.1225 -0.9916
vn 0.0797 0.0000 -0.9968
vn 0.0000 -1.0000 -0.0000
vn 0.5547 -0.8321 -0.0000
vn 0.5145 -0.8575 0.0000
vn -0.9701 0.2425 0.0000
vn 0.0458 -0.1833 -0.9820
vn 0.0458 -0.1833 0.9820
vn -0.9285 0.3714 0.0000
vn 0.6247 -0.7809 -0.0000
vn -0.0697 0.0697 0.9951
vn -0.0408 0.1225 0.9916
vn 0.0458 0.1833 0.9820
vn -0.0697 -0.0697 0.9951
vn -0.0408 -0.1225 0.9916
vn -0.0697 -0.0697 -0.9951
vn -0.0408 -0.1225 -0.9916
s 1
f 1/1/1 2/2/1 3/3/1
f 4/4/2 5/5/2 6/6/2
f 3/3/1 7/7/1 1/1/1
f 8/8/3 4/4/3 3/9/3
f 1/10/4 9/11/4 10/12/4
f 2/13/3 11/14/3 12/15/3
f 3/9/3 12/15/3 8/8/3
f 10/12/4 13/16/4 1/10/4
f 13/17/5 14/18/5 2/2/5
f 15/19/2 4/4/2 6/6/2
f 16/20/3 17/21/3 18/22/3
f 19/23/6 15/24/6 6/25/6
f 4/26/7 20/27/7 7/28/7
f 21/29/8 16/30/8 14/31/8
f 13/16/9 22/32/9 21/33/9
f 22/32/10 23/34/10 21/33/10
f 11/14/3 16/20/3 18/22/3
f 24/35/11 25/36/11 26/37/11
f 16/38/12 26/39/12 25/40/12
f 23/34/13 24/41/13 26/42/13
f 9/11/14 7/43/14 19/44/14
f 19/44/14 7/43/14 20/45/14
f 27/46/15 28/47/15 29/48/15
f 30/49/2 6/6/2 5/5/2
f 31/50/15 29/48/15 28/47/15
f 30/49/3 8/8/3 29/51/3
f 9/11/4 28/52/4 10/12/4
f 11/14/3 27/53/3 12/15/3
f 12/15/3 29/51/3 8/8/3
f 32/54/4 10/12/4 28/52/4
f 33/55/16 32/56/16 27/46/16
f 34/57/2 6/6/2 30/49/2
f 17/21/3 35/58/3 18/22/3
f 34/59/17 19/60/17 6/61/17
f 36/62/7 30/63/7 31/64/7
f 35/65/18 37/66/18 33/67/18
f 32/54/4 22/32/4 38/68/4
f 39/69/19 22/32/19 37/70/19
f 11/14/20 35/58/20 33/71/20
f 40/72/21 24/35/21 41/73/21
f 35/74/22 41/75/22 39/76/22
f 39/69/4 24/41/4 42/77/4
f 9/11/14 19/44/14 31/78/14
f 19/44/14 36/79/14 31/78/14
f 1/1/1 13/17/1 2/2/1
f 3/3/1 4/80/1 7/7/1
f 8/8/3 5/5/3 4/4/3
f 1/10/4 7/43/4 9/11/4
f 2/13/23 14/81/23 11/14/23
f 3/9/3 2/13/3 12/15/3
f 10/12/4 38/68/4 13/16/4
f 13/17/5 21/82/5 14/18/5
f 16/20/24 25/83/24 17/21/24
f 19/23/6 20/84/6 15/24/6
f 4/26/7 15/85/7 20/27/7
f 21/29/8 23/86/8 16/30/8
f 13/16/4 38/68/4 22/32/4
f 22/32/4 42/77/4 23/34/4
f 11/14/25 14/81/25 16/20/25
f 24/35/11 17/87/11 25/36/11
f 16/38/12 23/88/12 26/39/12
f 23/34/4 42/77/4 24/41/4
f 27/46/15 32/56/15 28/47/15
f 31/50/15 30/89/15 29/48/15
f 30/49/3 5/5/3 8/8/3
f 9/11/4 31/78/4 28/52/4
f 11/14/26 33/71/26 27/53/26
f 12/15/3 27/53/3 29/51/3
f 32/54/4 38/68/4 10/12/4
f 33/55/16 37/90/16 32/56/16
f 17/21/27 40/91/27 35/58/27
f 34/59/17 36/92/17 19/60/17
f 36/62/7 34/93/7 30/63/7
f 35/65/18 39/94/18 37/66/18
f 32/54/28 37/70/28 22/32/28
f 39/69/4 42/77/4 22/32/4
f 11/14/3 18/22/3 35/58/3
f 40/72/21 17/87/21 24/35/21
f 35/74/22 40/95/22 41/75/22
f 39/69/29 41/96/29 24/41/29
