# Blender v2.78 (sub 0) OBJ File: 'Shield.blend'
# www.blender.org
o Cube
v 0.680000 -0.500000 -0.100000
v 0.680000 -0.500000 0.100000
v -0.680000 -0.500000 0.100000
v -0.680000 -0.500000 -0.100000
v 1.000000 0.600000 -0.100000
v 0.999999 0.600000 0.100000
v -1.000000 0.600000 0.100000
v -1.000000 0.600000 -0.100000
v 0.000000 -1.000000 -0.100000
v -0.000000 -1.000000 0.100000
v 0.000000 1.000000 -0.100000
v -0.000001 1.000000 0.100000
v 0.880000 0.000000 -0.100000
v 0.880000 0.000000 0.100000
v -0.880000 0.000000 0.100000
v -0.880000 0.000000 -0.100000
v 0.000000 0.000000 -0.100000
v -0.000000 0.000000 0.100000
v 0.748000 -0.552500 0.000000
v -0.748000 -0.552500 -0.000000
v 1.100000 0.657500 0.000000
v -1.100000 0.657500 -0.000000
v 0.000000 -1.102500 0.000000
v -0.968000 -0.002500 -0.000000
v 0.968000 -0.002500 0.000000
v -0.000000 1.097500 0.000000
vt 0.4984 0.3145
vt 0.3797 0.2946
vt 0.4984 0.2946
vt 0.6194 0.7755
vt 0.6197 0.9335
vt 0.4615 0.8706
vt 0.6976 0.2946
vt 0.7892 0.3152
vt 0.6940 0.3148
vt 0.5223 0.7501
vt 0.5047 0.6550
vt 0.6338 0.6033
vt 0.2992 0.2946
vt 0.2076 0.2740
vt 0.3029 0.2744
vt 0.2237 0.5611
vt 0.3528 0.5277
vt 0.3528 0.6128
vt 0.5047 0.5699
vt 0.3352 0.7079
vt 0.1987 0.7970
vt 0.2031 0.9550
vt 0.0424 0.8646
vt 0.6172 0.2946
vt 0.8060 0.5684
vt 0.6768 0.6019
vt 0.7355 0.4551
vt 0.3585 0.8559
vt 0.7777 0.8701
vt 0.3797 0.2769
vt 0.1824 0.5490
vt 0.0533 0.5155
vt 0.1237 0.4022
vt 0.6171 0.3123
vt 0.0533 0.6007
vt 0.0709 0.6958
vt 0.7883 0.7486
vt 0.8060 0.6535
vt 0.2076 0.3152
vt 0.0344 0.2946
vt 0.2071 0.2946
vt 0.7892 0.2740
vt 0.9625 0.2946
vt 0.7898 0.2946
vt 0.9568 0.3156
vt 0.0401 0.2736
vt 0.6940 0.2744
vt 0.6171 0.2769
vt 0.3029 0.3148
vt 0.3797 0.3123
vt 0.4984 0.2747
vt 0.2824 0.4144
vt 0.5751 0.4565
vt 0.0401 0.3156
vt 0.9568 0.2736
vn -0.4568 -0.6212 0.6367
vn -0.0000 -0.0000 1.0000
vn 0.7406 -0.1481 0.6554
vn 0.0000 0.0000 -1.0000
vn -0.7406 -0.1481 -0.6554
vn 0.4568 -0.6212 0.6367
vn -0.7157 -0.2863 -0.6370
vn 0.7157 -0.2863 0.6370
vn -0.2753 0.6883 0.6711
vn 0.2753 0.6883 -0.6711
vn 0.2753 0.6883 0.6711
vn -0.2753 0.6883 -0.6711
vn 0.7157 -0.2863 -0.6370
vn -0.7157 -0.2863 0.6370
vn 0.4568 -0.6212 -0.6367
vn -0.7406 -0.1481 0.6554
vn 0.7406 -0.1481 -0.6554
vn -0.4568 -0.6212 -0.6367
s off
f 10/1/1 20/2/1 23/3/1
f 18/4/2 12/5/2 7/6/2
f 25/7/3 6/8/3 14/9/3
f 5/10/4 13/11/4 17/12/4
f 24/13/5 8/14/5 16/15/5
f 17/16/4 4/17/4 16/18/4
f 1/19/4 17/12/4 13/11/4
f 16/18/4 8/20/4 17/16/4
f 11/21/4 17/22/4 8/23/4
f 19/24/6 10/1/6 23/3/6
f 2/25/2 18/26/2 10/27/2
f 17/22/4 11/21/4 5/28/4
f 12/5/2 18/4/2 6/29/2
f 20/2/7 16/15/7 4/30/7
f 18/31/2 3/32/2 10/33/2
f 19/24/8 14/9/8 2/34/8
f 15/35/2 18/31/2 7/36/2
f 6/37/2 18/26/2 14/38/2
f 7/39/9 26/40/9 22/41/9
f 5/42/10 26/43/10 21/44/10
f 6/8/11 26/43/11 12/45/11
f 8/14/12 26/40/12 11/46/12
f 13/47/13 19/24/13 1/48/13
f 15/49/14 20/2/14 3/50/14
f 19/24/15 9/51/15 1/48/15
f 7/39/16 24/13/16 15/49/16
f 5/42/17 25/7/17 13/47/17
f 9/51/18 20/2/18 4/30/18
f 10/1/1 3/50/1 20/2/1
f 25/7/3 21/44/3 6/8/3
f 24/13/5 22/41/5 8/14/5
f 17/16/4 9/52/4 4/17/4
f 1/19/4 9/53/4 17/12/4
f 19/24/6 2/34/6 10/1/6
f 2/25/2 14/38/2 18/26/2
f 20/2/7 24/13/7 16/15/7
f 18/31/2 15/35/2 3/32/2
f 19/24/8 25/7/8 14/9/8
f 7/39/9 12/54/9 26/40/9
f 5/42/10 11/55/10 26/43/10
f 6/8/11 21/44/11 26/43/11
f 8/14/12 22/41/12 26/40/12
f 13/47/13 25/7/13 19/24/13
f 15/49/14 24/13/14 20/2/14
f 19/24/15 23/3/15 9/51/15
f 7/39/16 22/41/16 24/13/16
f 5/42/17 21/44/17 25/7/17
f 9/51/18 23/3/18 20/2/18
